<svg xmlns="http://www.w3.org/2000/svg" xmlns:xlink="http://www.w3.org/1999/xlink" width="1080" zoomAndPan="magnify" viewBox="0 0 810 534.000001" height="712" preserveAspectRatio="xMidYMid meet" version="1.0"><defs><g/><clipPath id="7b8123700a"><path d="M 0.757812 0 L 809.242188 0 L 809.242188 533 L 0.757812 533 Z M 0.757812 0 " clip-rule="nonzero"/></clipPath><clipPath id="d611fec1b6"><path d="M 21.601562 112.214844 L 299.554688 112.214844 L 299.554688 390.167969 L 21.601562 390.167969 Z M 21.601562 112.214844 " clip-rule="nonzero"/></clipPath></defs><g clip-path="url(#7b8123700a)"><path fill="#ffffff" d="M 0.757812 0 L 809.242188 0 L 809.242188 533 L 0.757812 533 Z M 0.757812 0 " fill-opacity="1" fill-rule="nonzero"/><path fill="#ffffff" d="M 0.757812 0 L 809.242188 0 L 809.242188 533 L 0.757812 533 Z M 0.757812 0 " fill-opacity="1" fill-rule="nonzero"/></g><g fill="#000000" fill-opacity="1"><g transform="translate(320.025326, 326.862101)"><g><path d="M 143.566406 -54.222656 C 141.5625 -55.132812 139.925781 -55.132812 138.835938 -52.769531 C 138.105469 -50.949219 137.195312 -48.945312 136.285156 -47.128906 C 131.554688 -37.484375 126.824219 -27.65625 121.003906 -18.558594 C 119.730469 -16.738281 118.453125 -14.921875 116.636719 -13.648438 C 114.996094 -12.375 113.542969 -12.375 112.085938 -14.011719 C 110.265625 -16.195312 109.355469 -18.742188 108.8125 -21.472656 C 107.71875 -29.113281 106.628906 -36.753906 106.445312 -44.398438 C 106.261719 -50.039062 105.535156 -55.679688 104.082031 -61.136719 C 100.988281 -71.875 92.253906 -75.148438 82.972656 -69.144531 C 81.335938 -68.050781 79.878906 -66.960938 78.605469 -65.6875 C 74.96875 -62.230469 72.238281 -58.410156 69.691406 -54.40625 C 68.78125 -53.132812 68.417969 -51.496094 66.597656 -50.765625 C 66.234375 -55.859375 65.867188 -60.773438 65.503906 -65.503906 C 64.960938 -72.054688 63.867188 -78.605469 61.320312 -84.609375 C 56.589844 -96.4375 45.488281 -100.257812 34.390625 -94.074219 C 29.113281 -91.160156 25.292969 -86.792969 21.835938 -82.0625 C 21.105469 -80.789062 20.5625 -79.152344 18.558594 -77.878906 C 18.558594 -79.515625 18.558594 -80.242188 18.558594 -81.152344 C 18.921875 -86.976562 18.558594 -92.796875 18.195312 -98.621094 C 17.832031 -102.988281 17.832031 -103.171875 13.28125 -102.988281 C 10.734375 -102.804688 8.371094 -102.261719 6.003906 -102.441406 C 3.273438 -102.441406 2 -101.167969 1.636719 -98.621094 C 1.457031 -97.710938 1.273438 -96.984375 1.273438 -96.074219 C -2.546875 -72.238281 -4.003906 -48.402344 -2.546875 -24.199219 C -2.367188 -18.015625 -1.820312 -11.644531 -0.546875 -5.277344 C 0 -1.820312 0.546875 -1.457031 4.183594 -1.273438 C 6.734375 -1.089844 9.28125 -1.089844 11.828125 -1.089844 C 15.464844 -1.273438 15.648438 -1.457031 16.011719 -4.914062 C 16.195312 -8.371094 16.738281 -11.828125 16.921875 -15.101562 C 17.648438 -34.207031 23.289062 -52.222656 29.476562 -70.054688 C 31.113281 -74.785156 33.296875 -79.332031 36.210938 -83.335938 C 37.300781 -84.972656 38.394531 -86.429688 40.03125 -87.523438 C 42.578125 -89.339844 44.761719 -88.976562 46.398438 -86.066406 C 48.035156 -83.15625 48.945312 -79.699219 49.675781 -76.421875 C 52.222656 -65.140625 52.769531 -53.675781 52.769531 -42.03125 C 52.949219 -31.480469 52.769531 -20.925781 52.769531 -10.191406 C 52.769531 -5.824219 52.949219 -5.640625 57.5 -5.277344 C 66.234375 -4.730469 64.777344 -4.183594 66.414062 -12.007812 C 68.78125 -23.835938 72.054688 -35.480469 76.96875 -46.761719 C 78.96875 -51.675781 81.699219 -55.859375 85.519531 -59.5 C 87.339844 -61.320312 88.433594 -60.957031 89.160156 -58.589844 C 90.070312 -56.226562 90.613281 -53.675781 90.796875 -51.128906 C 91.707031 -44.398438 92.433594 -37.847656 94.074219 -31.296875 C 95.347656 -25.472656 97.164062 -19.652344 100.078125 -14.375 C 104.988281 -5.457031 117.363281 -4.183594 123.1875 -11.28125 C 124.640625 -13.101562 126.460938 -14.921875 127.734375 -16.921875 C 135.195312 -27.113281 139.742188 -38.757812 144.476562 -50.402344 C 145.019531 -51.859375 145.566406 -53.496094 143.566406 -54.222656 Z M 143.566406 -54.222656 "/></g></g></g><g fill="#000000" fill-opacity="1"><g transform="translate(456.130245, 326.862101)"><g><path d="M 53.496094 -53.132812 C 50.402344 -54.222656 50.039062 -54.222656 48.21875 -50.949219 C 48.035156 -50.402344 47.671875 -49.675781 47.308594 -49.128906 C 41.304688 -37.300781 35.300781 -25.65625 29.296875 -13.828125 C 28.203125 -11.644531 27.113281 -9.644531 25.839844 -7.640625 C 24.019531 -4.914062 22.382812 -5.09375 20.742188 -7.824219 C 19.289062 -10.554688 18.378906 -13.648438 17.832031 -16.558594 C 16.558594 -24.382812 16.558594 -32.386719 16.195312 -40.210938 C 15.648438 -54.585938 17.105469 -68.960938 18.195312 -83.335938 C 18.742188 -90.433594 18.558594 -90.613281 11.097656 -90.796875 C 10.734375 -90.796875 10.191406 -90.796875 9.644531 -90.796875 C 7.824219 -90.980469 6.734375 -90.25 6.1875 -88.433594 C 5.640625 -86.976562 4.914062 -85.703125 4.550781 -84.066406 C 1.089844 -70.601562 -1.089844 -56.953125 -1.089844 -42.03125 C -1.273438 -35.117188 -0.726562 -27.292969 1.089844 -19.46875 C 2.367188 -14.558594 4.003906 -10.007812 7.097656 -6.003906 C 14.738281 3.820312 30.570312 2.910156 36.753906 -7.824219 C 38.394531 -10.734375 39.847656 -14.011719 41.121094 -17.105469 C 45.671875 -27.476562 50.21875 -37.847656 54.769531 -48.21875 C 55.496094 -50.21875 56.40625 -52.039062 53.496094 -53.132812 Z M 15.101562 -100.441406 C 20.015625 -100.621094 22.925781 -103.351562 22.925781 -107.902344 C 22.925781 -112.269531 19.832031 -114.996094 14.558594 -114.816406 C 10.554688 -114.816406 7.277344 -110.996094 7.460938 -106.628906 C 7.460938 -102.441406 10.007812 -100.441406 15.101562 -100.441406 Z M 15.101562 -100.441406 "/></g></g></g><g fill="#000000" fill-opacity="1"><g transform="translate(504.713145, 326.862101)"><g><path d="M 102.261719 -53.132812 C 99.167969 -53.859375 98.804688 -51.675781 98.074219 -49.675781 C 94.253906 -38.394531 90.070312 -27.113281 84.429688 -16.375 C 82.609375 -12.917969 80.789062 -9.460938 78.242188 -6.367188 C 76.785156 -4.550781 75.332031 -2.183594 72.601562 -2.730469 C 69.507812 -3.09375 69.691406 -6.1875 68.78125 -8.371094 C 68.597656 -8.914062 68.597656 -9.644531 68.417969 -10.371094 C 65.503906 -23.472656 66.777344 -36.574219 68.050781 -49.675781 C 68.78125 -56.769531 68.960938 -63.683594 68.234375 -70.78125 C 67.871094 -75.695312 66.960938 -80.609375 64.414062 -85.15625 C 60.957031 -91.34375 54.953125 -94.074219 47.855469 -92.433594 C 41.304688 -90.980469 36.574219 -86.976562 32.570312 -81.882812 C 27.292969 -75.332031 23.472656 -68.050781 20.015625 -60.59375 C 19.289062 -59.136719 18.921875 -57.5 16.921875 -55.859375 C 16.921875 -58.042969 16.921875 -59.683594 16.921875 -61.320312 C 16.921875 -70.417969 16.921875 -79.515625 16.921875 -88.613281 C 16.921875 -89.886719 16.921875 -91.34375 16.738281 -92.796875 C 16.558594 -94.980469 15.464844 -96.074219 13.101562 -96.074219 C 10.007812 -95.890625 6.914062 -95.890625 3.820312 -95.890625 C 1.457031 -95.890625 0 -94.800781 -0.183594 -92.433594 C -0.363281 -91.34375 -0.726562 -90.433594 -0.910156 -89.339844 C -4.730469 -66.597656 -5.824219 -43.671875 -4.730469 -20.5625 C -4.550781 -14.375 -3.457031 -8.007812 -2.546875 -1.820312 C -1.820312 3.457031 -1.089844 3.820312 4.183594 3.457031 C 6.003906 3.273438 7.640625 3.273438 9.460938 3.09375 C 14.011719 3.09375 14.011719 2.910156 14.921875 -1.636719 C 18.195312 -19.105469 22.382812 -36.210938 28.203125 -52.949219 C 31.84375 -63.320312 37.300781 -72.964844 44.214844 -81.515625 C 45.488281 -82.972656 46.761719 -85.15625 49.128906 -84.609375 C 51.859375 -84.066406 52.039062 -81.335938 52.402344 -79.332031 C 53.859375 -72.785156 54.40625 -66.234375 54.042969 -59.5 C 53.496094 -47.128906 52.039062 -34.753906 52.769531 -22.382812 C 53.132812 -16.375 54.042969 -10.371094 56.226562 -4.730469 C 57.5 -1.636719 59.320312 1.273438 62.59375 2.910156 C 68.78125 5.640625 78.058594 4.183594 82.972656 -0.183594 C 84.972656 -2.183594 86.792969 -4.183594 88.25 -6.550781 C 96.621094 -19.289062 101.714844 -33.480469 105.535156 -48.21875 C 106.445312 -51.675781 105.535156 -52.222656 102.261719 -53.132812 Z M 102.261719 -53.132812 "/></g></g></g><g fill="#000000" fill-opacity="1"><g transform="translate(601.51504, 326.862101)"><g><path d="M 43.125 -43.488281 C 43.304688 -35.300781 44.214844 -27.113281 45.488281 -18.921875 C 47.128906 -7.277344 49.675781 4.003906 54.042969 14.921875 C 55.496094 18.195312 56.953125 21.472656 59.320312 24.199219 C 64.960938 30.75 76.058594 29.839844 80.425781 22.5625 C 82.792969 18.742188 84.429688 14.558594 85.519531 10.371094 C 90.25 -6.914062 94.617188 -24.199219 98.984375 -41.488281 C 99.53125 -43.488281 99.894531 -45.125 97.164062 -45.851562 C 93.707031 -46.582031 92.253906 -46.035156 91.34375 -43.488281 C 91.160156 -42.578125 90.980469 -41.851562 90.613281 -40.941406 C 86.066406 -24.019531 81.335938 -7.277344 76.605469 9.644531 C 75.875 12.191406 74.96875 14.921875 73.511719 17.285156 C 73.328125 17.832031 72.785156 18.558594 72.054688 18.378906 C 70.964844 18.378906 70.78125 17.46875 70.601562 16.738281 C 69.324219 12.191406 68.78125 7.640625 68.78125 2.910156 C 68.597656 -4.367188 68.78125 -11.828125 68.597656 -19.105469 C 67.6875 -54.585938 69.871094 -89.886719 72.238281 -125.003906 C 72.417969 -128.644531 72.417969 -132.285156 72.417969 -135.921875 C 72.417969 -137.925781 71.507812 -139.015625 69.324219 -139.015625 C 65.503906 -138.835938 61.683594 -138.835938 58.042969 -138.835938 C 55.679688 -138.835938 54.585938 -137.558594 53.859375 -135.558594 C 52.769531 -131.917969 51.496094 -128.460938 50.585938 -124.640625 C 47.855469 -113.542969 46.398438 -102.078125 44.761719 -90.796875 C 44.035156 -85.882812 43.851562 -86.066406 38.9375 -85.703125 C 24.929688 -84.609375 13.28125 -78.789062 5.457031 -66.597656 C 1.820312 -60.957031 -0.726562 -54.769531 -2 -48.035156 C -3.457031 -40.03125 -4.003906 -32.023438 -0.910156 -24.199219 C 2.183594 -15.832031 8.914062 -12.917969 17.105469 -12.191406 C 24.746094 -11.644531 29.296875 -15.648438 32.570312 -22.015625 C 35.664062 -28.203125 37.847656 -34.570312 40.394531 -40.941406 C 40.941406 -42.578125 41.304688 -44.214844 42.394531 -45.488281 C 43.304688 -44.945312 43.125 -44.214844 43.125 -43.488281 Z M 15.101562 -24.746094 C 13.101562 -38.9375 14.738281 -52.769531 22.382812 -65.324219 C 26.203125 -71.691406 31.296875 -76.421875 38.757812 -78.425781 C 39.121094 -78.425781 39.667969 -78.605469 40.210938 -78.605469 C 40.578125 -78.605469 40.941406 -78.425781 41.304688 -78.425781 C 42.03125 -77.148438 41.121094 -76.242188 40.757812 -75.148438 C 34.570312 -59.863281 28.203125 -44.761719 22.5625 -29.296875 C 21.289062 -26.019531 20.015625 -22.746094 17.285156 -20.199219 C 15.464844 -21.289062 15.285156 -23.109375 15.101562 -24.746094 Z M 15.101562 -24.746094 "/></g></g></g><g fill="#000000" fill-opacity="1"><g transform="translate(695.951469, 326.862101)"><g><path d="M 55.132812 -50.765625 C 55.132812 -50.585938 55.132812 -50.402344 55.132812 -50.402344 C 54.953125 -50.21875 54.953125 -50.21875 54.769531 -50.21875 C 54.953125 -45.308594 54.40625 -40.578125 54.042969 -35.847656 C 53.3125 -23.472656 53.132812 -11.097656 54.769531 1.273438 C 55.496094 5.824219 56.589844 10.371094 58.226562 14.738281 C 60.226562 20.015625 64.050781 22.925781 69.871094 23.109375 C 75.695312 23.289062 80.242188 21.652344 82.972656 16.011719 C 84.066406 13.464844 85.15625 10.917969 86.066406 8.371094 C 91.523438 -6.550781 95.710938 -22.015625 100.257812 -37.300781 C 102.261719 -43.304688 102.078125 -43.304688 95.710938 -43.851562 C 93.707031 -44.035156 92.433594 -43.304688 91.890625 -41.488281 C 91.160156 -39.304688 90.25 -37.300781 89.523438 -35.117188 C 85.15625 -21.472656 80.609375 -7.824219 76.058594 5.824219 C 75.332031 8.007812 74.785156 10.371094 72.785156 12.554688 C 71.875 10.007812 71.507812 7.640625 71.507812 5.277344 C 71.328125 -0.183594 71.144531 -5.640625 71.144531 -11.28125 C 71.328125 -33.480469 74.058594 -55.679688 74.96875 -77.878906 C 75.148438 -80.972656 75.148438 -84.066406 74.785156 -87.15625 C 74.421875 -89.523438 73.148438 -90.433594 70.964844 -90.25 C 68.597656 -90.070312 66.234375 -89.707031 63.867188 -89.886719 C 60.59375 -90.070312 59.136719 -88.613281 58.042969 -85.882812 C 54.222656 -76.242188 50.21875 -66.597656 46.398438 -56.769531 C 41.488281 -44.945312 36.9375 -32.933594 30.386719 -21.835938 C 29.296875 -20.199219 28.566406 -18.378906 27.113281 -17.105469 C 25.109375 -15.101562 23.472656 -15.285156 22.382812 -17.832031 C 20.925781 -21.105469 20.378906 -24.746094 20.015625 -28.386719 C 18.378906 -41.488281 19.289062 -54.585938 20.5625 -67.871094 C 21.289062 -76.605469 21.652344 -85.339844 22.015625 -94.074219 C 22.199219 -97.347656 21.835938 -97.710938 18.742188 -97.53125 C 14.558594 -97.347656 10.554688 -96.984375 6.367188 -96.621094 C 5.09375 -96.4375 4.183594 -95.710938 4.003906 -94.4375 C 3.820312 -92.980469 3.457031 -91.707031 3.273438 -90.25 C 0.910156 -72.417969 0.546875 -54.40625 1.273438 -36.390625 C 1.457031 -29.660156 2.546875 -22.746094 5.457031 -16.375 C 7.097656 -13.28125 8.914062 -10.554688 12.191406 -8.914062 C 20.378906 -4.914062 31.113281 -7.460938 36.9375 -14.375 C 39.667969 -17.832031 41.851562 -21.472656 43.488281 -25.472656 C 46.582031 -32.207031 49.492188 -38.9375 52.402344 -45.671875 C 53.132812 -47.128906 53.3125 -49.128906 54.769531 -50.039062 C 54.953125 -50.21875 54.953125 -50.585938 55.132812 -50.765625 Z M 55.132812 -50.765625 "/></g></g></g><g clip-path="url(#d611fec1b6)"><path fill="#8e5ded" d="M 299.554688 251.191406 C 299.554688 253.464844 299.496094 255.738281 299.386719 258.011719 C 299.273438 260.28125 299.105469 262.550781 298.882812 264.8125 C 298.660156 267.074219 298.382812 269.332031 298.050781 271.582031 C 297.714844 273.832031 297.328125 276.074219 296.882812 278.304688 C 296.4375 280.535156 295.941406 282.753906 295.386719 284.957031 C 294.835938 287.164062 294.230469 289.355469 293.570312 291.53125 C 292.910156 293.710938 292.195312 295.867188 291.429688 298.011719 C 290.664062 300.152344 289.84375 302.273438 288.972656 304.375 C 288.105469 306.476562 287.183594 308.554688 286.210938 310.609375 C 285.238281 312.667969 284.214844 314.699219 283.144531 316.703125 C 282.070312 318.710938 280.949219 320.6875 279.78125 322.636719 C 278.613281 324.589844 277.394531 326.511719 276.132812 328.402344 C 274.867188 330.292969 273.558594 332.152344 272.203125 333.976562 C 270.847656 335.804688 269.449219 337.597656 268.007812 339.355469 C 266.5625 341.113281 265.078125 342.835938 263.550781 344.519531 C 262.023438 346.207031 260.457031 347.851562 258.847656 349.460938 C 257.238281 351.070312 255.59375 352.636719 253.90625 354.164062 C 252.222656 355.691406 250.5 357.175781 248.742188 358.621094 C 246.984375 360.0625 245.191406 361.460938 243.363281 362.816406 C 241.539062 364.171875 239.679688 365.480469 237.789062 366.746094 C 235.898438 368.007812 233.976562 369.226562 232.023438 370.394531 C 230.074219 371.5625 228.097656 372.683594 226.089844 373.757812 C 224.085938 374.828125 222.054688 375.851562 219.996094 376.824219 C 217.941406 377.796875 215.863281 378.71875 213.761719 379.585938 C 211.660156 380.457031 209.539062 381.277344 207.398438 382.042969 C 205.253906 382.808594 203.097656 383.523438 200.917969 384.183594 C 198.742188 384.84375 196.550781 385.449219 194.34375 386 C 192.140625 386.554688 189.921875 387.050781 187.691406 387.496094 C 185.460938 387.941406 183.21875 388.328125 180.96875 388.664062 C 178.71875 388.996094 176.460938 389.273438 174.199219 389.496094 C 171.9375 389.71875 169.667969 389.886719 167.398438 390 C 165.125 390.109375 162.851562 390.167969 160.578125 390.167969 C 158.304688 390.167969 156.03125 390.109375 153.757812 390 C 151.488281 389.886719 149.21875 389.71875 146.957031 389.496094 C 144.691406 389.273438 142.433594 388.996094 140.183594 388.664062 C 137.933594 388.328125 135.695312 387.941406 133.464844 387.496094 C 131.234375 387.050781 129.015625 386.554688 126.808594 386 C 124.601562 385.449219 122.410156 384.84375 120.234375 384.183594 C 118.058594 383.523438 115.898438 382.808594 113.757812 382.042969 C 111.617188 381.277344 109.496094 380.457031 107.394531 379.585938 C 105.292969 378.71875 103.214844 377.796875 101.15625 376.824219 C 99.101562 375.851562 97.070312 374.828125 95.066406 373.757812 C 93.058594 372.683594 91.082031 371.5625 89.128906 370.394531 C 87.179688 369.226562 85.257812 368.007812 83.367188 366.746094 C 81.476562 365.480469 79.617188 364.171875 77.789062 362.816406 C 75.960938 361.460938 74.171875 360.0625 72.410156 358.621094 C 70.652344 357.175781 68.933594 355.691406 67.246094 354.164062 C 65.5625 352.636719 63.914062 351.070312 62.304688 349.460938 C 60.699219 347.851562 59.128906 346.207031 57.601562 344.519531 C 56.074219 342.835938 54.589844 341.113281 53.148438 339.355469 C 51.703125 337.597656 50.304688 335.804688 48.949219 333.976562 C 47.597656 332.152344 46.285156 330.292969 45.023438 328.402344 C 43.757812 326.511719 42.542969 324.589844 41.375 322.636719 C 40.203125 320.6875 39.082031 318.710938 38.011719 316.703125 C 36.9375 314.699219 35.917969 312.667969 34.945312 310.609375 C 33.972656 308.554688 33.050781 306.476562 32.179688 304.375 C 31.308594 302.273438 30.492188 300.152344 29.726562 298.011719 C 28.960938 295.867188 28.246094 293.710938 27.585938 291.53125 C 26.925781 289.355469 26.320312 287.164062 25.765625 284.957031 C 25.214844 282.753906 24.714844 280.535156 24.273438 278.304688 C 23.828125 276.074219 23.4375 273.832031 23.105469 271.582031 C 22.773438 269.332031 22.492188 267.074219 22.269531 264.8125 C 22.046875 262.550781 21.878906 260.28125 21.769531 258.011719 C 21.65625 255.738281 21.601562 253.464844 21.601562 251.191406 C 21.601562 248.917969 21.65625 246.644531 21.769531 244.371094 C 21.878906 242.101562 22.046875 239.832031 22.269531 237.570312 C 22.492188 235.304688 22.773438 233.046875 23.105469 230.796875 C 23.4375 228.546875 23.828125 226.308594 24.273438 224.078125 C 24.714844 221.847656 25.214844 219.628906 25.765625 217.421875 C 26.320312 215.214844 26.925781 213.023438 27.585938 210.847656 C 28.246094 208.671875 28.960938 206.511719 29.726562 204.371094 C 30.492188 202.230469 31.308594 200.109375 32.179688 198.007812 C 33.050781 195.90625 33.972656 193.828125 34.945312 191.769531 C 35.917969 189.714844 36.9375 187.683594 38.011719 185.679688 C 39.082031 183.671875 40.203125 181.695312 41.375 179.742188 C 42.542969 177.792969 43.757812 175.871094 45.023438 173.980469 C 46.285156 172.089844 47.597656 170.230469 48.949219 168.402344 C 50.304688 166.574219 51.703125 164.785156 53.148438 163.023438 C 54.589844 161.265625 56.074219 159.546875 57.601562 157.859375 C 59.128906 156.175781 60.699219 154.527344 62.304688 152.917969 C 63.914062 151.3125 65.5625 149.742188 67.246094 148.214844 C 68.933594 146.6875 70.652344 145.203125 72.410156 143.761719 C 74.171875 142.316406 75.960938 140.917969 77.789062 139.5625 C 79.617188 138.210938 81.476562 136.898438 83.367188 135.636719 C 85.257812 134.371094 87.179688 133.15625 89.128906 131.988281 C 91.082031 130.816406 93.058594 129.695312 95.066406 128.625 C 97.070312 127.550781 99.101562 126.53125 101.15625 125.558594 C 103.214844 124.585938 105.292969 123.664062 107.394531 122.792969 C 109.496094 121.921875 111.617188 121.105469 113.757812 120.339844 C 115.898438 119.574219 118.058594 118.859375 120.234375 118.199219 C 122.410156 117.539062 124.601562 116.933594 126.808594 116.378906 C 129.015625 115.828125 131.234375 115.328125 133.464844 114.886719 C 135.695312 114.441406 137.933594 114.050781 140.183594 113.71875 C 142.433594 113.386719 144.691406 113.105469 146.957031 112.882812 C 149.21875 112.660156 151.488281 112.492188 153.757812 112.382812 C 156.03125 112.269531 158.304688 112.214844 160.578125 112.214844 C 162.851562 112.214844 165.125 112.269531 167.398438 112.382812 C 169.667969 112.492188 171.9375 112.660156 174.199219 112.882812 C 176.460938 113.105469 178.71875 113.386719 180.96875 113.71875 C 183.21875 114.050781 185.460938 114.441406 187.691406 114.886719 C 189.921875 115.328125 192.140625 115.828125 194.34375 116.378906 C 196.550781 116.933594 198.742188 117.539062 200.917969 118.199219 C 203.097656 118.859375 205.253906 119.574219 207.398438 120.339844 C 209.539062 121.105469 211.660156 121.921875 213.761719 122.792969 C 215.863281 123.664062 217.941406 124.585938 219.996094 125.558594 C 222.054688 126.53125 224.085938 127.550781 226.089844 128.625 C 228.097656 129.695312 230.074219 130.816406 232.023438 131.988281 C 233.976562 133.15625 235.898438 134.371094 237.789062 135.636719 C 239.679688 136.898438 241.539062 138.210938 243.363281 139.5625 C 245.191406 140.917969 246.984375 142.316406 248.742188 143.761719 C 250.5 145.203125 252.222656 146.6875 253.90625 148.214844 C 255.59375 149.742188 257.238281 151.3125 258.847656 152.917969 C 260.457031 154.527344 262.023438 156.175781 263.550781 157.859375 C 265.078125 159.546875 266.5625 161.265625 268.007812 163.023438 C 269.449219 164.785156 270.847656 166.574219 272.203125 168.402344 C 273.558594 170.230469 274.867188 172.089844 276.132812 173.980469 C 277.394531 175.871094 278.613281 177.792969 279.78125 179.742188 C 280.949219 181.695312 282.070312 183.671875 283.144531 185.679688 C 284.214844 187.683594 285.238281 189.714844 286.210938 191.769531 C 287.183594 193.828125 288.105469 195.90625 288.972656 198.007812 C 289.84375 200.109375 290.664062 202.230469 291.429688 204.371094 C 292.195312 206.511719 292.910156 208.671875 293.570312 210.847656 C 294.230469 213.023438 294.835938 215.214844 295.386719 217.421875 C 295.941406 219.628906 296.4375 221.847656 296.882812 224.078125 C 297.328125 226.308594 297.714844 228.546875 298.050781 230.796875 C 298.382812 233.046875 298.660156 235.304688 298.882812 237.570312 C 299.105469 239.832031 299.273438 242.101562 299.386719 244.371094 C 299.496094 246.644531 299.554688 248.917969 299.554688 251.191406 Z M 299.554688 251.191406 " fill-opacity="1" fill-rule="nonzero"/></g><g fill="#ffffff" fill-opacity="1"><g transform="translate(102.338742, 346.975231)"><g><path d="M 82.859375 -42.125 C 85.546875 -42.375 87.554688 -42.75 88.890625 -43.25 C 94.347656 -45.257812 98.664062 -49.117188 101.84375 -54.828125 L 103.984375 -59.09375 L 106 -63.5 C 106.914062 -65.675781 107.878906 -68.441406 108.890625 -71.796875 L 111.40625 -80.34375 C 113.5 -87.300781 114.753906 -93.628906 115.171875 -99.328125 L 115.296875 -103.109375 L 115.296875 -111.78125 L 115.421875 -116.6875 C 115.515625 -120.539062 115.140625 -123.8125 114.296875 -126.5 L 114.046875 -128.5 C 113.378906 -134.289062 112.035156 -138.734375 110.015625 -141.828125 C 109.679688 -142.503906 109.304688 -143.425781 108.890625 -144.59375 C 108.472656 -145.9375 107.632812 -147.828125 106.375 -150.265625 L 104.875 -153.15625 L 103.359375 -156.046875 C 102.265625 -158.390625 101.507812 -160.441406 101.09375 -162.203125 L 100.59375 -163.34375 L 99.84375 -164.46875 L 92.171875 -175.15625 C 90.742188 -177 88.859375 -177.960938 86.515625 -178.046875 C 83.578125 -178.128906 81.226562 -177.878906 79.46875 -177.296875 L 77.703125 -176.796875 L 75.828125 -176.53125 C 71.878906 -176.363281 68.0625 -174.394531 64.375 -170.625 C 62.03125 -168.195312 59.347656 -164.757812 56.328125 -160.3125 C 51.804688 -153.78125 49 -148.289062 47.90625 -143.84375 L 46.65625 -138.9375 L 45.515625 -133.78125 L 45.015625 -131.265625 L 44.390625 -128.625 L 43.890625 -127 L 43.5 -125.359375 L 42.875 -119.703125 L 42.375 -113.921875 C 42.039062 -106.128906 42.25 -98.539062 43 -91.15625 C 43.84375 -82.351562 45.394531 -75.144531 47.65625 -69.53125 C 50.757812 -61.40625 54.488281 -55.539062 58.84375 -51.9375 L 59.46875 -51.421875 L 59.984375 -50.796875 C 66.015625 -44.765625 73.640625 -41.875 82.859375 -42.125 Z M 126.375 -137.0625 C 126.289062 -135.71875 126.414062 -134.125 126.75 -132.28125 L 127.5 -127.625 L 128.25 -121.96875 L 128.625 -116.1875 L 129.515625 -104.609375 C 129.597656 -102.765625 129.554688 -101.09375 129.390625 -99.59375 L 128.765625 -92.296875 L 128.125 -84.875 L 127.75 -79.09375 L 127.25 -73.3125 L 127 -71.296875 L 126.625 -69.28125 C 124.945312 -61.15625 122.597656 -53.066406 119.578125 -45.015625 C 117.816406 -40.566406 115.507812 -36.332031 112.65625 -32.3125 C 110.144531 -28.789062 106.5 -25.476562 101.71875 -22.375 C 98.789062 -20.53125 96.695312 -18.984375 95.4375 -17.734375 C 94.175781 -16.472656 92.664062 -15.46875 90.90625 -14.71875 L 85.625 -12.703125 L 80.09375 -10.6875 C 75.0625 -9.09375 69.65625 -9.007812 63.875 -10.4375 C 56 -12.445312 49.421875 -14.878906 44.140625 -17.734375 L 42.25 -18.734375 L 35.96875 -23.515625 L 29.796875 -28.296875 C 27.703125 -30.054688 25.316406 -32.359375 22.640625 -35.203125 C 19.703125 -38.304688 17.269531 -41.617188 15.34375 -45.140625 C 11.40625 -52.597656 8.382812 -59.554688 6.28125 -66.015625 L 3.390625 -75.0625 C 2.390625 -78.5 1.632812 -81.5625 1.125 -84.25 L 0.75 -86.125 L 0.5 -87.890625 L 0.125 -100.71875 L 0 -113.546875 C 0.164062 -120.421875 0.960938 -127.421875 2.390625 -134.546875 L 5.53125 -149.875 C 5.863281 -151.132812 6.367188 -152.726562 7.046875 -154.65625 L 8.671875 -159.3125 C 10.347656 -164.175781 13.828125 -170.710938 19.109375 -178.921875 C 23.390625 -185.710938 28.835938 -190.867188 35.453125 -194.390625 C 37.972656 -195.816406 40.65625 -196.863281 43.5 -197.53125 L 49.171875 -198.796875 C 51.347656 -199.378906 53.191406 -199.96875 54.703125 -200.5625 C 56.296875 -201.3125 58.179688 -201.476562 60.359375 -201.0625 C 62.617188 -200.632812 65.21875 -200.632812 68.15625 -201.0625 C 74.851562 -201.894531 81.097656 -201.390625 86.890625 -199.546875 C 88.898438 -198.878906 90.578125 -198.207031 91.921875 -197.53125 C 97.535156 -194.269531 101.679688 -191.128906 104.359375 -188.109375 C 110.066406 -181.734375 114.257812 -175.78125 116.9375 -170.25 L 117.3125 -169.5 L 117.5625 -168.75 C 118.40625 -164.96875 120.039062 -160.4375 122.46875 -155.15625 C 123.226562 -153.570312 123.859375 -151.476562 124.359375 -148.875 L 124.984375 -145.609375 L 125.484375 -142.34375 L 125.984375 -139.703125 Z M 126.375 -137.0625 "/></g></g></g></svg>